<svg width="170" height="86" viewBox="0 0 170 86" fill="none" xmlns="http://www.w3.org/2000/svg">
<path d="M47.9459 0.0769043C74.4258 0.0769043 95.8902 19.1483 95.8902 42.6725C95.8902 66.1966 74.4242 85.2666 47.9459 85.2666C21.4677 85.2666 0 66.1966 0 42.6725C0 19.1483 21.466 0.0769043 47.9459 0.0769043ZM124.512 2.57204C137.752 2.57204 148.485 20.5238 148.485 42.6725H148.487C148.487 64.8154 137.754 82.7729 124.514 82.7729C111.274 82.7729 100.541 64.8154 100.541 42.6725C100.541 20.5296 111.272 2.57204 124.512 2.57204ZM161.569 6.74881C166.224 6.74881 170 22.8321 170 42.6725C170 62.5071 166.226 78.5961 161.569 78.5961C156.912 78.5961 153.139 62.5114 153.139 42.6725C153.139 22.8335 156.913 6.74881 161.569 6.74881Z" fill="white"/>
</svg>
